name C:\Users\antoi\Documents\MyRepositories\upper-imu-dc\Results\main_tracking\Case_78\FLX01_linearAccelerations_bodyFrame.mot
datacolumns 4
datarows 47
range 0.71000000 1.17000000
endheader 
time	radius_imu_x	radius_imu_y	radius_imu_z	
          0.71000000	         -0.64638484	          9.92699368	          4.27925024	
          0.72000000	         -0.56286295	          9.94610870	          4.39058624	
          0.73000000	         -0.46851074	          9.96388281	          4.49389689	
          0.74000000	         -0.35974242	          9.98199727	          4.58615280	
          0.75000000	         -0.23835498	         10.00021046	          4.66686166	
          0.76000000	         -0.10548272	         10.01805264	          4.73451833	
          0.77000000	          0.03476154	         10.03528759	          4.79219627	
          0.78000000	          0.18063400	         10.05126421	          4.83955143	
          0.79000000	          0.32748582	         10.06522400	          4.87670688	
          0.80000000	          0.47025852	         10.07766695	          4.90694625	
          0.81000000	          0.59593731	         10.08686881	          4.95764418	
          0.82000000	          0.62124216	         10.10466030	          4.99117961	
          0.83000000	          0.62645696	         10.11699817	          5.05785570	
          0.84000000	          0.62196130	         10.12809200	          5.11973184	
          0.85000000	          0.60190850	         10.13624578	          5.17944374	
          0.86000000	          0.57303111	         10.14128890	          5.23891711	
          0.87000000	          0.53611927	         10.14325664	          5.30347721	
          0.88000000	          0.49368412	         10.14237801	          5.37434412	
          0.89000000	          0.45601475	         10.13696824	          5.43657533	
          0.90000000	          0.41350398	         10.12844091	          5.50384433	
          0.91000000	          0.37263953	         10.11581993	          5.56925311	
          0.92000000	          0.33777989	         10.09874428	          5.63078666	
          0.93000000	          0.30743663	         10.07733525	          5.69120074	
          0.94000000	          0.28488703	         10.05093543	          5.74834371	
          0.95000000	          0.27011119	         10.01959866	          5.80592173	
          0.96000000	          0.26360021	          9.98333115	          5.86479800	
          0.97000000	          0.26803432	          9.94189137	          5.92335468	
          0.98000000	          0.28449295	          9.89518885	          5.98111387	
          0.99000000	          0.31143061	          9.84319210	          6.03919378	
          1.00000000	          0.34743737	          9.78553519	          6.09860740	
          1.01000000	          0.39260887	          9.72208521	          6.16052271	
          1.02000000	          0.44768142	          9.65115867	          6.22661590	
          1.03000000	          0.49856747	          9.57364219	          6.28250380	
          1.04000000	          0.55469695	          9.49287590	          6.34614732	
          1.05000000	          0.61230396	          9.41338259	          6.39920395	
          1.06000000	          0.65576712	          9.31048857	          6.45839488	
          1.07000000	          0.69542850	          9.20987682	          6.52179070	
          1.08000000	          0.72353603	          9.10216507	          6.57892987	
          1.09000000	          0.74182232	          8.98794877	          6.63449723	
          1.10000000	          0.74880387	          8.86699788	          6.69173712	
          1.11000000	          0.74384884	          8.73958035	          6.75016725	
          1.12000000	          0.72767733	          8.60599223	          6.80823867	
          1.13000000	          0.70123583	          8.46646892	          6.86570105	
          1.14000000	          0.66513188	          8.32117593	          6.92358807	
          1.15000000	          0.62012985	          8.17028245	          6.98218649	
          1.16000000	          0.56775328	          8.01394393	          7.04110906	
          1.17000000	          0.50951401	          7.85253031	          7.10060577	
